<svg width="11" height="22" viewBox="0 0 11 22" version="1.1" xmlns="http://www.w3.org/2000/svg" xmlns:xlink="http://www.w3.org/1999/xlink">
<title>Shape</title>
<desc>Created using Figma</desc>
<g id="Canvas" transform="translate(-3837 -524)">
<g id="Shape">
<use xlink:href="#path0_fill" transform="translate(3837.03 524)" fill="#4661AF"/>
</g>
</g>
<defs>
<path id="path0_fill" d="M 6.81496 7.20115L 6.81496 5.30751C 6.81496 5.02324 6.82803 4.80305 6.85461 4.64751C 6.8811 4.49174 6.94135 4.33853 7.03486 4.18729C 7.12823 4.03614 7.27943 3.93179 7.48822 3.87396C 7.69729 3.81604 7.97512 3.78718 8.32198 3.78718L 10.2155 3.78718L 10.2155 0L 7.18835 0C 5.43676 0 4.17874 0.415571 3.41411 1.24671C 2.64958 2.07804 2.26735 3.30257 2.26735 4.92076L 2.26735 7.2011L 0 7.2011L 0 10.9886L 2.26721 10.9886L 2.26721 21.9772L 6.81491 21.9772L 6.81491 10.9886L 9.84189 10.9886L 10.242 7.20115L 6.81496 7.20115Z"/>
</defs>
</svg>
