<svg width="21" height="22" viewBox="0 0 21 22" version="1.1" xmlns="http://www.w3.org/2000/svg" xmlns:xlink="http://www.w3.org/1999/xlink">
<title>googleplus</title>
<desc>Created using Figma</desc>
<g id="Canvas" transform="translate(-3585 -524)">
<g id="googleplus">
<g id="Shape">
<use xlink:href="#path0_fill" transform="translate(3585 524)" fill="#FFF"/>
</g>
<g id="Shape">
<use xlink:href="#path1_fill" transform="translate(3599 530)" fill="#FFF"/>
</g>
</g>
</g>
<defs>
<path id="path0_fill" fill-rule="evenodd" d="M 11.0322 12.5599L 10.0234 11.7584L 10.0059 11.7435C 9.70044 11.4849 9.29565 11.142 9.29565 10.5245C 9.29565 9.91748 9.68311 9.52277 10.0366 9.16272L 10.0806 9.11804C 11.2556 8.172 12.4302 7.16516 12.4302 5.04364C 12.4302 2.86206 11.0879 1.71436 10.4443 1.16974L 12.1792 1.16974L 14 0L 8.48364 0C 6.96997 0 4.78857 0.365967 3.19141 1.71436C 1.98779 2.77625 1.40063 4.2403 1.40063 5.55865C 1.40063 7.79602 3.08057 10.0643 6.04785 10.0643C 6.32788 10.0643 6.63452 10.0361 6.94287 10.007L 6.90112 10.1096C 6.77734 10.4116 6.66431 10.6879 6.66431 11.126C 6.66431 11.9772 7.07397 12.5129 7.4541 13.0101L 7.50415 13.0756L 7.41846 13.0816C 6.13965 13.1713 3.85181 13.3315 2.15527 14.3976C 0.50293 15.4024 0 16.8646 0 17.8972C 0 20.0214 1.9585 22 6.01929 22C 10.8347 22 13.3838 19.2756 13.3838 16.5784C 13.3843 14.5968 12.2646 13.6216 11.0322 12.5599ZM 7.36475 9.2605C 4.95581 9.2605 3.8645 6.07617 3.8645 4.15497C 3.8645 3.40668 4.00317 2.63428 4.47949 2.03094C 4.92871 1.45654 5.71094 1.08374 6.44116 1.08374C 8.76343 1.08374 9.96802 4.29675 9.96802 6.36292C 9.96802 6.87976 9.91211 7.79578 9.26807 8.45825C 8.81787 8.91821 8.06421 9.2605 7.36475 9.2605ZM 2.46484 17.295C 2.46484 19.3328 4.39648 20.7979 7.39209 20.7979C 10.0808 20.7979 11.5093 19.4748 11.509 17.6985C 11.509 16.2313 10.5847 15.4591 8.45508 13.9093C 8.23218 13.8806 8.09229 13.8806 7.81226 13.8806C 7.55981 13.8806 6.04736 13.9368 4.87207 14.3412C 4.2561 14.569 2.46484 15.2584 2.46484 17.295Z"/>
<path id="path1_fill" d="M 4.18545 2.79375L 4.18545 0L 2.80053 0L 2.80053 2.79375L 0 2.79375L 0 4.18874L 2.80053 4.18874L 2.80053 7L 4.18545 7L 4.18545 4.18874L 7 4.18874L 7 2.79375L 4.18545 2.79375Z"/>
</defs>
</svg>
