<svg xmlns="http://www.w3.org/2000/svg" width="16" height="15" viewBox="0 0 16 15">
  <path fill="#AFAFAF" d="M26.8926968,17.9385391 C25.4630671,16.0710653 23.2892042,15 20.9285583,15 C19.2689207,15 17.6951228,15.5331934 16.3772172,16.5420147 C15.9003688,16.9070882 15.468983,17.3292188 15.0934338,17.7951337 L14.758567,15.8983686 C14.721902,15.6909394 14.5238805,15.5522124 14.3166546,15.5890808 L13.3151053,15.7658458 C13.2154844,15.7834409 13.1269493,15.8398877 13.0689261,15.9227272 C13.0109028,16.0056176 12.9882224,16.1080863 13.0058175,16.2077073 L13.8014632,20.7147555 C13.8341616,20.8997586 13.9950604,21.0299422 14.1766056,21.0299422 C14.1986249,21.0299422 14.2209494,21.0280098 14.2433755,21.0240433 L18.7504746,20.2283977 C18.9579039,20.1917835 19.0963765,19.9939654 19.0597624,19.7865362 L18.8829466,18.7849868 C18.8653515,18.6853659 18.8089555,18.5968308 18.7260652,18.5388076 C18.6431748,18.4807844 18.5407061,18.4581548 18.4410851,18.4756991 L16.5629322,18.8072604 C16.8271134,18.4950232 17.1261289,18.2101957 17.459165,17.9552697 C18.4641215,17.1860168 19.6642008,16.7794473 20.9297279,16.7794473 C22.7308894,16.7794473 24.389154,17.5962986 25.4794927,19.020487 C26.4083731,20.2338389 26.8090945,21.7363409 26.6079201,23.2511493 C26.4066949,24.7660085 25.6276274,26.1118325 24.4142246,27.040662 C23.4064203,27.8121525 22.2082225,28.2199425 20.9491538,28.2199425 C20.6950923,28.2199425 20.4374711,28.2028559 20.1834605,28.1691404 C18.6686522,27.967966 17.3228282,27.1889493 16.3939478,25.9754956 C15.8285644,25.2369579 15.448591,24.3655413 15.2950659,23.4554257 C15.2782335,23.355703 15.2224478,23.2667103 15.1400151,23.2080768 C15.0576333,23.1494433 14.9552154,23.126051 14.8554928,23.1427816 L13.8526213,23.3119694 C13.6449377,23.3470071 13.5049903,23.5438081 13.5399772,23.7514917 C13.7415075,24.9462823 14.2396632,26.0894572 14.9806419,27.0573927 C16.1984689,28.6482771 17.9630163,29.6697099 19.9490792,29.9334843 C20.2813525,29.9776247 20.6185586,30 20.9512896,30 C22.6032993,30 24.1748596,29.4653318 25.495969,28.4539679 C27.0869043,27.2361409 28.1083371,25.4715935 28.3721115,23.4854798 C28.6360384,21.499366 28.1106255,19.5294235 26.8926968,17.9385391 Z" transform="translate(-13 -15)"/>
</svg>
