<?xml version="1.0" encoding="UTF-8"?>
<svg width="10px" height="6px" viewBox="0 0 10 6" version="1.1" xmlns="http://www.w3.org/2000/svg" xmlns:xlink="http://www.w3.org/1999/xlink">
    <!-- Generator: Sketch 46.2 (44496) - http://www.bohemiancoding.com/sketch -->
    <title>Shape</title>
    <desc>Created with Sketch.</desc>
    <defs></defs>
    <g id="Page-1" stroke="none" stroke-width="1" fill="none" fill-rule="evenodd" opacity="0.600000024">
        <g id="Pages" transform="translate(-1324.000000, -34.000000)" fill-rule="nonzero" fill="#565555">
            <g id="Header">
                <g id="Profile" transform="translate(1277.000000, 16.000000)">
                    <g id="arrow" transform="translate(47.000000, 18.000000)">
                        <path d="M9.2722847,0.687608541 L8.81515302,0.230327402 C8.65674021,0.0800071174 8.47172242,0.00482562278 8.26052669,0.00482562278 C8.04497509,0.00482562278 7.86215658,0.0800071174 7.71177224,0.230327402 L4.74896797,3.19321708 L1.78618505,0.230412811 C1.63582206,0.0800925267 1.45296085,0.00491103203 1.23749466,0.00491103203 C1.02619217,0.00491103203 0.841217082,0.0800925267 0.682782918,0.230412811 L0.231651246,0.68769395 C0.0771886121,0.842049822 0,1.02702491 0,1.2424484 C0,1.46188612 0.0772740214,1.64476868 0.231629893,1.79105338 L4.20025623,5.75970107 C4.34662633,5.91407829 4.52942349,5.99133096 4.74894662,5.99133096 C4.96434875,5.99133096 5.14930249,5.91409964 5.30361566,5.75970107 L9.27226335,1.79105338 C9.42264769,1.64064769 9.49789324,1.45778648 9.49789324,1.2424484 C9.49791459,1.03103915 9.42266904,0.846170819 9.2722847,0.687608541 Z" id="Shape"></path>
                    </g>
                </g>
            </g>
        </g>
    </g>
</svg>