<?xml version="1.0" encoding="UTF-8"?>
<svg width="39px" height="32px" viewBox="0 0 39 32" version="1.1" xmlns="http://www.w3.org/2000/svg" xmlns:xlink="http://www.w3.org/1999/xlink">
    <!-- Generator: Sketch 46.2 (44496) - http://www.bohemiancoding.com/sketch -->
    <title>Shape</title>
    <desc>Created with Sketch.</desc>
    <defs></defs>
    <g id="Page-1" stroke="none" stroke-width="1" fill="none" fill-rule="evenodd" opacity="0.25">
        <g id="Billing-Screen" transform="translate(-549.000000, -133.000000)" fill-rule="nonzero" fill="#000000">
            <g id="Back-arrow" transform="translate(549.000000, 133.000000)">
                <path d="M36.3499552,13.7675108 L7.58876876,13.7673174 L17.5001506,3.8112461 C18.3684507,2.9396031 18.3684507,1.52563312 17.5001506,0.654119069 C16.6318504,-0.21803969 15.2241361,-0.21803969 14.3571197,0.654119069 L0.651225116,14.4211786 C-0.217075039,15.2928216 -0.217075039,16.7069205 0.651225116,17.5783056 L14.3571197,31.3460099 C14.7911414,31.7822182 15.3599524,32 15.9286351,32 C16.4973178,32 17.0661289,31.7822182 17.5001506,31.3460099 C18.3684507,30.4743669 18.3684507,29.0603969 17.5001506,28.1890118 L7.58876876,18.2324247 L36.3499552,18.2326181 C37.5774368,18.2326181 38.5728241,17.2329364 38.5728241,16 C38.5728241,14.7670636 37.5775652,13.7675108 36.3499552,13.7675108 Z" id="Shape"></path>
            </g>
        </g>
    </g>
</svg>