<?xml version="1.0" encoding="UTF-8"?>
<svg width="15px" height="19px" viewBox="0 0 15 19" version="1.1" xmlns="http://www.w3.org/2000/svg" xmlns:xlink="http://www.w3.org/1999/xlink">
    <!-- Generator: Sketch 46.2 (44496) - http://www.bohemiancoding.com/sketch -->
    <title>delete-button</title>
    <desc>Created with Sketch.</desc>
    <defs></defs>
    <g id="Page-1" stroke="none" stroke-width="1" fill="none" fill-rule="evenodd">
        <g id="Project" transform="translate(-761.000000, -564.000000)" fill-rule="nonzero" fill="#FF6363">
            <g id="Cards-1" transform="translate(133.000000, 329.000000)">
                <g id="Hover-Card-2" transform="translate(400.000000, 0.000000)">
                    <g id="delete-button" transform="translate(228.000000, 235.000000)">
                        <path d="M12.6570872,2.27366667 L9.82123925,2.27366667 C9.6797754,0.995867495 8.63609242,0 7.37205665,0 C6.10805863,0 5.06452671,0.995828157 4.92306286,2.27366667 L2.08706385,2.27366667 C0.939416646,2.27366667 0.00585341615,3.24640373 0.00585341615,4.44183023 L0.00585341615,4.5530766 C0.00585341615,5.46661077 0.551920497,6.24852174 1.32117267,6.56711594 L1.32117267,16.8093747 C1.32117267,18.0048406 2.25484919,18.9775383 3.40242087,18.9775383 L11.341768,18.9775383 C12.4893774,18.9775383 13.4229784,18.0047619 13.4229784,16.8093747 L13.4229784,6.56715528 C14.1921928,6.24852174 14.7382976,5.46661077 14.7382976,4.55311594 L14.7382976,4.44186957 C14.7382976,3.24640373 13.8046589,2.27366667 12.6570872,2.27366667 Z M7.37205665,1.02824224 C8.09096944,1.02824224 8.69103901,1.56500207 8.82381714,2.27366667 L5.9205605,2.27366667 C6.05330087,1.56496273 6.6534082,1.02824224 7.37205665,1.02824224 Z M12.4358658,16.8093747 C12.4358658,17.4379089 11.9449342,17.9493354 11.3417302,17.9493354 L3.40238311,17.9493354 C2.79917913,17.9493354 2.30824745,17.4378696 2.30824745,16.8093747 L2.30824745,6.72124017 L12.4358658,6.72124017 L12.4358658,16.8093747 Z M13.7511851,4.5530766 C13.7511851,5.18161077 13.2602534,5.69303727 12.6570494,5.69303727 L2.08706385,5.69303727 C1.48385988,5.69303727 0.992928199,5.18161077 0.992928199,4.5530766 L0.992928199,4.44183023 C0.992928199,3.81329607 1.48385988,3.30186957 2.08706385,3.30186957 L12.6570872,3.30186957 C13.2602912,3.30186957 13.7512229,3.81329607 13.7512229,4.44183023 L13.7512229,4.5530766 L13.7511851,4.5530766 Z" id="Shape"></path>
                        <path d="M4.72593491,16.6343623 C4.99851528,16.6343623 5.2194723,16.4041201 5.2194723,16.1203002 L5.2194723,10.3316335 C5.2194723,10.0477743 4.99847752,9.81749275 4.72593491,9.81749275 C4.4533923,9.81749275 4.23239752,10.0477743 4.23239752,10.3316335 L4.23239752,16.1203002 C4.23235975,16.4041988 4.45335453,16.6343623 4.72593491,16.6343623 Z" id="Shape"></path>
                        <path d="M7.37205665,16.6343623 C7.64463702,16.6343623 7.8656318,16.4041201 7.8656318,16.1203002 L7.8656318,10.3316335 C7.8656318,10.0477743 7.64456149,9.81749275 7.37205665,9.81749275 C7.09951404,9.81749275 6.87851925,10.0477743 6.87851925,10.3316335 L6.87851925,16.1203002 C6.87851925,16.4041988 7.09947627,16.6343623 7.37205665,16.6343623 Z" id="Shape"></path>
                        <path d="M10.0181784,16.6343623 C10.290721,16.6343623 10.511678,16.4041201 10.511678,16.1203002 L10.511678,10.3316335 C10.511678,10.0477743 10.2906832,9.81749275 10.0181784,9.81749275 C9.74556025,9.81749275 9.52460323,10.0477743 9.52460323,10.3316335 L9.52460323,16.1203002 C9.52456547,16.4041988 9.74563578,16.6343623 10.0181784,16.6343623 Z" id="Shape"></path>
                    </g>
                </g>
            </g>
        </g>
    </g>
</svg>