<?xml version="1.0" encoding="UTF-8"?>
<svg width="152px" height="152px" viewBox="0 0 152 152" version="1.1" xmlns="http://www.w3.org/2000/svg" xmlns:xlink="http://www.w3.org/1999/xlink">
    <!-- Generator: Sketch 46.2 (44496) - http://www.bohemiancoding.com/sketch -->
    <title>Circle 3</title>
    <desc>Created with Sketch.</desc>
    <defs></defs>
    <g id="Page-1" stroke="none" stroke-width="1" fill="none" fill-rule="evenodd">
        <g id="Empty-State---Project" transform="translate(-984.000000, -325.000000)">
            <g id="Circle-3" transform="translate(984.000000, 325.000000)">
                <circle id="Oval" fill="#869BA3" opacity="0.400000006" cx="76" cy="76" r="76"></circle>
                <g id="like" opacity="0.300000012" transform="translate(43.000000, 35.000000)" fill-rule="nonzero">
                    <path d="M20,34 C20,32.9 19.1014975,32 18.0033278,32 L1.99667221,32 C0.898502496,32 0,32.9 0,34 C0,35.1 0.898502496,36 1.99667221,36 L18.0033278,36 C19.1014975,36 20,35.1 20,34 Z" id="Shape" fill="#000000"></path>
                    <path d="M65.0033278,32 L48.9966722,32 C47.8985025,32 47,32.9 47,34 C47,35.1 47.8985025,36 48.9966722,36 L65.0033278,36 C66.1014975,36 67,35.1 67,34 C67,32.9 66.1181364,32 65.0033278,32 Z" id="Shape" fill="#000000"></path>
                    <path d="M34,20 C35.1,20 36,19.1014975 36,18.0033278 L36,1.99667221 C36,0.898502496 35.1,0 34,0 C32.9,0 32,0.898502496 32,1.99667221 L32,18.0033278 C32,19.1014975 32.9,20 34,20 Z" id="Shape" fill="#000000"></path>
                    <path d="M44.0879002,25 C44.626153,25 45.1470429,24.7915875 45.5637547,24.3921303 L57.3879544,12.5647218 C58.2040152,11.7484396 58.2040152,10.4284939 57.3879544,9.61221167 C56.5718937,8.79592944 55.252306,8.79592944 54.4362453,9.61221167 L42.6120456,21.4396201 C41.7959848,22.2559023 41.7959848,23.575848 42.6120456,24.3921303 C43.0287575,24.7915875 43.5670103,25 44.0879002,25 Z" id="Shape" fill="#2E2E2E"></path>
                    <path d="M22.4362453,24.3921303 C22.8355941,24.7915875 23.373847,25 23.9120998,25 C24.4503527,25 24.9712425,24.7915875 25.3879544,24.3921303 C26.2040152,23.575848 26.2040152,22.2559023 25.3879544,21.4396201 L13.5637547,9.61221167 C12.747694,8.79592944 11.4281063,8.79592944 10.6120456,9.61221167 C9.79598481,10.4284939 9.79598481,11.7484396 10.6120456,12.5647218 L22.4362453,24.3921303 Z" id="Shape" fill="#2E2E2E"></path>
                    <path d="M57.9783072,46.3067548 C56.4398614,44.9885384 54.4956715,44.2618293 52.5176697,44.2618293 L50.6749159,44.2618293 L44.0477644,44.2618293 L40.9032487,44.2618293 L40.9032487,36.0652271 C40.9032487,32.1443782 39.7367348,29.2882425 37.420613,27.5813213 C33.7689173,24.911088 28.8154598,26.4152067 28.5956818,26.4828076 C27.7503819,26.7532109 27.1755779,27.5306206 27.1755779,28.4094316 L27.1755779,38.2960549 C27.1755779,41.3042924 25.738568,43.8562242 22.8814543,45.9011498 C20.7174865,47.4559691 18.5028007,48.165778 18.2153987,48.2502791 L18.0125267,48.3009797 C17.2517568,47.4390689 16.1359609,46.8982622 14.884917,46.8982622 L7.17578164,46.8982622 C4.87656584,46.8982622 3,48.7741856 3,51.0726143 L3,76.3553296 C3,78.6537583 4.87656584,80.5296817 7.17578164,80.5296817 L14.918729,80.5296817 C15.9330889,80.5296817 16.8798248,80.157877 17.5898767,79.5494694 C19.1452286,81.0704884 21.2584784,82 23.5407882,82 L31.2330176,82 L32.0275995,82 L47.7670841,82 C50.2015479,82 52.3486097,81.4084926 53.9884916,80.3099789 C56.0848354,78.8903612 57.3865973,76.6426332 57.7585293,73.7695973 L60.886139,54.3343549 C61.3764129,51.3261174 60.260617,48.2502791 57.9783072,46.3067548 Z M15.037071,76.3553296 C15.037071,76.4229304 14.986353,76.4736311 14.918729,76.4736311 L7.17578164,76.4736311 C7.10815764,76.4736311 7.05743965,76.4229304 7.05743965,76.3553296 L7.05743965,51.0726143 C7.05743965,51.0050134 7.10815764,50.9543128 7.17578164,50.9543128 L14.918729,50.9543128 C14.986353,50.9543128 15.037071,51.0050134 15.037071,51.0726143 L15.037071,76.3553296 L15.037071,76.3553296 Z M56.8794173,53.7090471 L53.7518076,73.17809 C53.7518076,73.1949902 53.7518076,73.2287906 53.7349016,73.262591 C53.5996536,74.4287056 53.1600977,77.9608496 47.7670841,77.9608496 L32.0275995,77.9608496 L31.2330176,77.9608496 L23.5407882,77.9608496 C21.3768204,77.9608496 19.4833486,76.3384294 19.1452286,74.1921026 C19.1283226,74.1076016 19.1114166,74.0231005 19.0945106,73.9554997 L19.0945106,52.2218286 L19.2128526,52.1880282 C19.2466646,52.1880282 19.2635706,52.171128 19.2973826,52.171128 C19.4157246,52.1373275 22.2897443,51.3261174 25.1468581,49.2811919 C29.1197677,46.4588567 31.2330176,42.6563093 31.2330176,38.2960549 L31.2330176,30.0825525 C32.3488135,29.964251 33.8872593,30.0149516 35.0199612,30.8430619 C36.2371931,31.7387731 36.8458091,33.496395 36.8458091,36.0483269 L36.8458091,46.2729544 C36.8458091,47.3883683 37.758733,48.3009797 38.8745289,48.3009797 L44.0477644,48.3009797 L50.6749159,48.3009797 L52.5176697,48.3009797 C53.5320296,48.3009797 54.5294835,48.6896845 55.3409715,49.365693 C56.5582034,50.413506 57.1330073,52.0697267 56.8794173,53.7090471 Z" id="Shape" fill="#000000"></path>
                </g>
            </g>
        </g>
    </g>
</svg>