<?xml version="1.0" encoding="UTF-8"?>
<svg width="152px" height="152px" viewBox="0 0 152 152" version="1.1" xmlns="http://www.w3.org/2000/svg" xmlns:xlink="http://www.w3.org/1999/xlink">
    <!-- Generator: Sketch 46.2 (44496) - http://www.bohemiancoding.com/sketch -->
    <title>Circle 2</title>
    <desc>Created with Sketch.</desc>
    <defs>
        <circle id="path-1" cx="76" cy="76" r="76"></circle>
    </defs>
    <g id="Page-1" stroke="none" stroke-width="1" fill="none" fill-rule="evenodd">
        <g id="Empty-State---Project" transform="translate(-607.000000, -325.000000)">
            <g id="Circle-2" transform="translate(607.000000, 325.000000)">
                <mask id="mask-2" fill="white">
                    <use xlink:href="#path-1"></use>
                </mask>
                <use id="Mask" fill="#869BA3" opacity="0.400000006" xlink:href="#path-1"></use>
                <g id="html" opacity="0.300000012" mask="url(#mask-2)" fill-rule="nonzero" fill="#000000">
                    <g transform="translate(36.000000, 29.000000)" id="Shape">
                        <path d="M119.028376,0 L9.97162427,0 C4.47334638,0 0,4.48551378 0,9.99874687 L0,91.0012531 C0,96.5144862 4.47334638,101 9.97162427,101 L119.028376,101 C124.526654,101 129,96.5144862 129,91.0012531 L129,9.99874687 C129,4.48551378 124.526654,0 119.028376,0 Z M9.97162427,3.79699248 L119.028376,3.79699248 C122.438671,3.79699248 125.213307,6.57917544 125.213307,9.99874687 L125.213307,16.2005013 L3.78669276,16.2005013 L3.78669276,9.99874687 C3.78669276,6.57917544 6.56132877,3.79699248 9.97162427,3.79699248 Z M119.028376,97.2030075 L9.97162427,97.2030075 C6.56132877,97.2030075 3.78669276,94.4208246 3.78669276,91.0012531 L3.78669276,19.9974937 L125.213307,19.9974937 L125.213307,91.0012531 C125.213307,94.4208246 122.438671,97.2030075 119.028376,97.2030075 Z"></path>
                        <path d="M10,12 C10.5253333,12 11.0426667,11.7866667 11.4133333,11.4133333 C11.7866667,11.0426667 12,10.5253333 12,10 C12,9.47466667 11.7866667,8.95733333 11.4133333,8.58666667 C11.0426667,8.21333333 10.5253333,8 10,8 C9.47466667,8 8.95733333,8.21333333 8.58666667,8.58666667 C8.21333333,8.95733333 8,9.47466667 8,10 C8,10.5253333 8.21333333,11.0426667 8.58666667,11.4133333 C8.95733333,11.7866667 9.47466667,12 10,12 Z"></path>
                        <path d="M16,12 C16.5253333,12 17.0426667,11.7866667 17.4133333,11.4133333 C17.7866667,11.0426667 18,10.5253333 18,10 C18,9.47466667 17.7866667,8.95733333 17.4133333,8.58666667 C17.0426667,8.21333333 16.5253333,8 16,8 C15.4746667,8 14.9573333,8.21333333 14.5866667,8.58666667 C14.2133333,8.95733333 14,9.47466667 14,10 C14,10.5253333 14.2133333,11.0426667 14.5866667,11.4133333 C14.9573333,11.7866667 15.4746667,12 16,12 Z"></path>
                        <path d="M22,12 C22.5253333,12 23.0426667,11.7866667 23.4133333,11.4133333 C23.7866667,11.0426667 24,10.5253333 24,10 C24,9.47466667 23.7866667,8.95733333 23.4133333,8.58666667 C23.0426667,8.21333333 22.5253333,8 22,8 C21.4746667,8 20.9573333,8.21333333 20.5866667,8.58666667 C20.2133333,8.95733333 20,9.47466667 20,10 C20,10.5253333 20.2133333,11.0426667 20.5866667,11.4133333 C20.9573333,11.7866667 21.4746667,12 22,12 Z"></path>
                        <path d="M29.9043887,12 L107.095611,12 C108.147342,12 109,11.1045333 109,10 C109,8.89546667 108.147342,8 107.095611,8 L29.9043887,8 C28.8526583,8 28,8.89546667 28,10 C28,11.1045333 28.8526583,12 29.9043887,12 Z"></path>
                        <path d="M114.935484,12 L119.064516,12 C120.133419,12 121,11.1045333 121,10 C121,8.89546667 120.133419,8 119.064516,8 L114.935484,8 C113.866581,8 113,8.89546667 113,10 C113,11.1045333 113.866581,12 114.935484,12 Z"></path>
                    </g>
                </g>
                <g id="Group-2" opacity="0.300000012" mask="url(#mask-2)">
                    <g transform="translate(53.000000, 55.000000)">
                        <g id="Text-edit" transform="translate(49.000000, 21.000000)">
                            <polygon id="Shape" fill="#010002" fill-rule="nonzero" points="15 3 0 3 0 5.90909091 6 5.90909091 6 19 9 19 9 5.90909091 15 5.90909091"></polygon>
                            <polygon id="Shape" fill="#010002" fill-rule="nonzero" points="19 1.42857143 19 0 15 0 15 1.42857143 16.3333333 1.42857143 16.3333333 18.5714286 15 18.5714286 15 20 19 20 19 18.5714286 17.6666667 18.5714286 17.6666667 1.42857143"></polygon>
                        </g>
                        <g id="comment" transform="translate(18.500000, 51.500000) rotate(-23.000000) translate(-18.500000, -51.500000) translate(5.000000, 37.000000)">
                            <path d="M20.3959852,29 C20.2062123,29 20.0188451,28.9426941 19.8630175,28.833165 L15.2024909,25.560441 C11.0735954,26.0570071 6.89231194,24.7059991 3.94789295,21.9060167 C-1.31596432,16.9015374 -1.31596432,8.75825964 3.94789295,3.75352623 C9.21148292,-1.25095305 17.7765856,-1.25139777 23.0402424,3.75352623 C26.369085,6.91849995 27.7107922,11.4042404 26.6373061,15.7648864 C26.6302899,15.8055469 26.6202667,15.8459532 26.6069024,15.886169 C26.4612985,16.4608795 26.2584955,17.0629723 26.0131273,17.6410499 L23.9119946,22.3947049 C23.7201503,22.8290096 23.1939316,23.0330109 22.7371404,22.8506105 C22.2803492,22.6680196 22.0655851,22.1678956 22.2576299,21.7335909 L24.3538846,16.9912446 C24.5602292,16.5047166 24.7352345,15.9859778 24.869345,15.4605046 C24.871216,15.4511654 24.8735548,15.4418262 24.8758935,15.432487 C25.832509,11.6330192 24.6718878,7.71798665 21.7713704,4.95980834 C17.2066657,0.62025499 9.7804673,0.620699714 5.21669804,4.95980834 C0.652661502,9.2993617 0.652661502,16.3602448 5.21669804,20.699544 C7.84732366,23.2006719 11.615918,24.3681359 15.302723,23.8240478 C15.538469,23.787644 15.7810307,23.8453946 15.97361,23.9806542 L20.0111606,26.8157063 L20.8981481,24.8091115 C21.0897251,24.3748068 21.6159438,24.1710596 22.0730023,24.3532059 C22.5297935,24.5357969 22.7445576,25.0359208 22.5525128,25.4702255 L21.2231675,28.4772587 C21.1165873,28.7185532 20.8992841,28.89981 20.6338694,28.9693776 C20.5555547,28.9900255 20.4757031,29 20.3959852,29 Z" id="Shape" fill="#000000" fill-rule="nonzero"></path>
                            <path d="M20.2379484,11 L8.76212254,11 C8.34111759,11 8,10.5524111 8,10 C8,9.4475889 8.34111759,9 8.76212254,9 L20.2378775,9 C20.6588824,9 21,9.4475889 21,10 C21,10.5524111 20.6589534,11 20.2379484,11 Z" id="Shape" fill="#000000" fill-rule="nonzero"></path>
                            <path d="M20.2379484,14 L8.76212254,14 C8.34111759,14 8,13.5524111 8,13 C8,12.4475889 8.34111759,12 8.76212254,12 L20.2378775,12 C20.6588824,12 21,12.4475889 21,13 C21,13.5524111 20.6589534,14 20.2379484,14 Z" id="Shape" fill="#000000" fill-rule="nonzero"></path>
                            <path d="M15.245838,19 L8.75416195,19 C8.33755452,19 8,18.5524111 8,18 C8,17.4475889 8.33755452,17 8.75416195,17 L15.245838,17 C15.6624455,17 16,17.4475889 16,18 C16.0000702,18.5524111 15.6625157,19 15.245838,19 Z" id="Shape" fill="#000000" fill-rule="nonzero"></path>
                        </g>
                        <g id="Edit" transform="translate(10.000000, 0.000000)">
                            <path d="M1.53835432,20 L13.0767957,20 L13.0767957,16.9231171 L3.07670861,16.9231171 L3.07670861,3.07705714 L16.9227686,3.07705714 L16.9227686,13.07697 C17.3480076,13.07697 17.6920329,13.4209953 17.6920329,13.8462343 C17.6920329,14.2714733 17.3480076,14.6154986 16.9227686,14.6154986 L16.9227686,16.9231171 L14.61515,16.9231171 L14.61515,20 L18.4612972,20 C18.4832562,20 18.5045182,19.9977344 18.526303,19.9966887 L18.5385024,19.0721425 C18.5454736,18.541988 19.1730496,18.2666283 19.5679642,18.6202389 L19.9236661,18.9388196 C19.9726383,18.7884175 20,18.6282557 20,18.4614714 L20,14.6153243 C19.574761,14.6153243 19.2307357,14.271299 19.2307357,13.84606 C19.2307357,13.420821 19.574761,13.0767957 20,13.0767957 L20,1.53852857 C20,0.688224889 19.311078,0 18.4614714,0 L1.5385286,0 C0.688922034,0 3.30584053e-08,0.68805061 3.30584053e-08,1.53852857 L3.30584053e-08,18.4614714 C-0.000174245211,19.3119494 0.688747755,20 1.53835432,20 Z" id="Shape" fill="#000000" fill-rule="nonzero"></path>
                            <g id="Group" transform="translate(7.000000, 7.000000)" fill-rule="nonzero" fill="#000000">
                                <path d="M0.606060606,12.1212121 C0.941082781,12.1212121 1.21212121,11.8049887 1.21212121,11.4141147 L1.21212121,8.58588528 C1.21212121,8.19501132 0.941082781,7.87878788 0.606060606,7.87878788 C0.271038431,7.87878788 0,8.19501132 0,8.58588528 L0,11.4141147 C0.00013730417,11.8049887 0.271175736,12.1212121 0.606060606,12.1212121 Z" id="Shape"></path>
                                <path d="M16.4646732,20 L19.2929026,20 C19.6837766,20 20,19.7289616 20,19.3939394 C20,19.0589172 19.6837766,18.7878788 19.2929026,18.7878788 L16.4646732,18.7878788 C16.0737992,18.7878788 15.7575758,19.0589172 15.7575758,19.3939394 C15.7575758,19.7289616 16.0739594,20 16.4646732,20 Z" id="Shape"></path>
                                <path d="M19.3939394,13.3333333 C19.0589172,13.3333333 18.7878788,13.6495568 18.7878788,14.0404307 L18.7878788,16.8686602 C18.7878788,17.2595341 19.0589172,17.5757576 19.3939394,17.5757576 C19.7289616,17.5757576 20,17.2595341 20,16.8686602 L20,14.0404307 C19.9998627,13.6495568 19.7288243,13.3333333 19.3939394,13.3333333 Z" id="Shape"></path>
                                <path d="M16.4646732,1.21212121 L19.2929026,1.21212121 C19.6837766,1.21212121 20,0.941082781 20,0.606060606 C20,0.271038431 19.6837766,0 19.2929026,0 L16.4646732,0 C16.0737992,0 15.7575758,0.271038431 15.7575758,0.606060606 C15.757736,0.941082781 16.0739594,1.21212121 16.4646732,1.21212121 Z" id="Shape"></path>
                                <path d="M19.3939394,3.03030303 C19.0589172,3.03030303 18.7878788,3.34652647 18.7878788,3.73740044 L18.7878788,6.56562987 C18.7878788,6.95650383 19.0589172,7.27272727 19.3939394,7.27272727 C19.7289616,7.27272727 20,6.95650383 20,6.56562987 L20,3.73740044 C19.9998627,3.34652647 19.7288243,3.03030303 19.3939394,3.03030303 Z" id="Shape"></path>
                                <path d="M8.98987229,18.7878788 L6.16164286,18.7878788 C5.7707689,18.7878788 5.45454545,19.0589172 5.45454545,19.3939394 C5.45454545,19.7289616 5.7707689,20 6.16164286,20 L8.98987229,20 C9.38074625,20 9.6969697,19.7289616 9.6969697,19.3939394 C9.6969697,19.0589172 9.38074625,18.7878788 8.98987229,18.7878788 Z" id="Shape"></path>
                                <path d="M0.606060606,3.03030303 C0.271038431,3.03030303 0,3.34652647 0,3.73740044 L0,6.56562987 C0,6.95650383 0.271038431,7.27272727 0.606060606,7.27272727 C0.941082781,7.27272727 1.21212121,6.95650383 1.21212121,6.56562987 L1.21212121,3.73740044 C1.21212121,3.34652647 0.941082781,3.03030303 0.606060606,3.03030303 Z" id="Shape"></path>
                                <path d="M3.53532684,18.7878788 L0.707097406,18.7878788 C0.316223444,18.7878788 0,19.0589172 0,19.3939394 C0,19.7289616 0.316223444,20 0.707097406,20 L3.53532684,20 C3.9262008,20 4.24242424,19.7289616 4.24242424,19.3939394 C4.24242424,19.0589172 3.9260406,18.7878788 3.53532684,18.7878788 Z" id="Shape"></path>
                                <path d="M0,16.8686602 C0,17.2595341 0.271038431,17.5757576 0.606060606,17.5757576 C0.941082781,17.5757576 1.21212121,17.2595341 1.21212121,16.8686602 L1.21212121,14.0404307 C1.21212121,13.6495568 0.941082781,13.3333333 0.606060606,13.3333333 C0.271038431,13.3333333 0,13.6495568 0,14.0404307 L0,16.8686602 Z" id="Shape"></path>
                                <path d="M19.3939394,7.87878788 C19.0589172,7.87878788 18.7878788,8.19501132 18.7878788,8.58588528 L18.7878788,11.4141147 C18.7878788,11.8049887 19.0589172,12.1212121 19.3939394,12.1212121 C19.7289616,12.1212121 20,11.8049887 20,11.4141147 L20,8.58588528 C19.9998627,8.19501132 19.7288243,7.87878788 19.3939394,7.87878788 Z" id="Shape"></path>
                                <path d="M11.6161883,1.21212121 L14.4444177,1.21212121 C14.8352917,1.21212121 15.1515152,0.941082781 15.1515152,0.606060606 C15.1515152,0.271038431 14.8352917,0 14.4444177,0 L11.6161883,0 C11.2253144,0 10.9090909,0.271038431 10.9090909,0.606060606 C10.9090909,0.941082781 11.2253144,1.21212121 11.6161883,1.21212121 Z" id="Shape"></path>
                                <path d="M0,0.606060606 C0,0.941082781 0.316223444,1.21212121 0.707097406,1.21212121 L3.53532684,1.21212121 C3.9262008,1.21212121 4.24242424,0.941082781 4.24242424,0.606060606 C4.24242424,0.271038431 3.9262008,0 3.53532684,0 L0.707097406,0 C0.316223444,0.00013730417 0,0.271175736 0,0.606060606 Z" id="Shape"></path>
                                <path d="M11.6161883,20 L14.4444177,20 C14.8352917,20 15.1515152,19.7289616 15.1515152,19.3939394 C15.1515152,19.0589172 14.8352917,18.7878788 14.4444177,18.7878788 L11.6161883,18.7878788 C11.2253144,18.7878788 10.9090909,19.0589172 10.9090909,19.3939394 C10.9090909,19.7289616 11.2253144,20 11.6161883,20 Z" id="Shape"></path>
                                <path d="M5.45454545,0.606060606 C5.45454545,0.941082781 5.7707689,1.21212121 6.16164286,1.21212121 L8.98987229,1.21212121 C9.38074625,1.21212121 9.6969697,0.941082781 9.6969697,0.606060606 C9.6969697,0.271038431 9.38074625,0 8.98987229,0 L6.16164286,0 C5.7707689,0.00013730417 5.45454545,0.271175736 5.45454545,0.606060606 Z" id="Shape"></path>
                            </g>
                        </g>
                    </g>
                </g>
            </g>
        </g>
    </g>
</svg>