<?xml version="1.0" encoding="UTF-8"?>
<svg width="152px" height="152px" viewBox="0 0 152 152" version="1.1" xmlns="http://www.w3.org/2000/svg" xmlns:xlink="http://www.w3.org/1999/xlink">
    <!-- Generator: Sketch 46.2 (44496) - http://www.bohemiancoding.com/sketch -->
    <title>Circle 1</title>
    <desc>Created with Sketch.</desc>
    <defs>
        <circle id="path-1" cx="76" cy="76" r="76"></circle>
    </defs>
    <g id="Page-1" stroke="none" stroke-width="1" fill="none" fill-rule="evenodd">
        <g id="Empty-State---Project" transform="translate(-230.000000, -325.000000)">
            <g id="Circle-1" transform="translate(230.000000, 325.000000)">
                <mask id="mask-2" fill="white">
                    <use xlink:href="#path-1"></use>
                </mask>
                <use id="Mask" fill="#869BA3" opacity="0.400000006" xlink:href="#path-1"></use>
                <g id="html" opacity="0.300000012" mask="url(#mask-2)">
                    <g transform="translate(41.000000, 26.000000)">
                        <path d="M119.028376,0 L9.97162427,0 C4.47334638,0 0,4.48551378 0,9.99874687 L0,91.0012531 C0,96.5144862 4.47334638,101 9.97162427,101 L119.028376,101 C124.526654,101 129,96.5144862 129,91.0012531 L129,9.99874687 C129,4.48551378 124.526654,0 119.028376,0 Z M9.97162427,3.79699248 L119.028376,3.79699248 C122.438671,3.79699248 125.213307,6.57917544 125.213307,9.99874687 L125.213307,16.2005013 L3.78669276,16.2005013 L3.78669276,9.99874687 C3.78669276,6.57917544 6.56132877,3.79699248 9.97162427,3.79699248 Z M119.028376,97.2030075 L9.97162427,97.2030075 C6.56132877,97.2030075 3.78669276,94.4208246 3.78669276,91.0012531 L3.78669276,19.9974937 L125.213307,19.9974937 L125.213307,91.0012531 C125.213307,94.4208246 122.438671,97.2030075 119.028376,97.2030075 Z" id="Shape" fill="#000000" fill-rule="nonzero"></path>
                        <g id="chrome" stroke-width="1" fill="none" fill-rule="evenodd" transform="translate(34.000000, 28.000000)">
                            <path d="M18,36 C27.9252878,36 36,27.9252878 36,18 C36,8.0747122 27.9252878,0 18,0 C8.0747122,0 0,8.0747122 0,18 C0,27.9252878 8.0747122,36 18,36 Z M33.3658537,18 C33.3658537,26.4728195 26.4728195,33.3658537 18,33.3658537 C16.3591024,33.3658537 14.7777366,33.1063024 13.2938341,32.6277659 L22.7026537,24.5990634 C23.0870634,24.3244098 23.4467122,24.0179707 23.7772098,23.6822049 L23.7835317,23.676761 L23.7830049,23.6760585 C25.2200195,22.2123512 26.1084293,20.2082927 26.1084293,18 C26.1084293,15.8965463 25.3030829,13.9780098 23.9849561,12.5355512 L32.3610146,12.5355512 C33.0093659,14.2344 33.3658537,16.0761951 33.3658537,18 Z M12.6581268,19.1929171 C12.5724293,18.8086829 12.5257171,18.4098732 12.5257171,18 C12.5257171,15.0309659 14.9020683,12.608078 17.8524878,12.5295805 L17.8524878,12.5357268 L18.3171512,12.5357268 C21.1885463,12.7004488 23.4744585,15.088039 23.4744585,18.0001756 C23.4744585,19.4526439 22.9047805,20.7735805 21.9786146,21.7545366 L21.0673756,22.5321366 C20.1917854,23.1265756 19.1358439,23.4744585 18.0001756,23.4744585 C15.7725659,23.4744585 13.8528,22.1363122 12.9989854,20.2223415 L13.0054829,20.2202341 L12.6581268,19.1929171 Z M18,2.63414634 C23.5025561,2.63414634 28.3379707,5.5422439 31.052722,9.90140488 L18.3888,9.90140488 C18.2599024,9.89525854 18.1303024,9.89157073 18,9.89157073 C14.9614244,9.89157073 12.3095415,11.5725073 10.9209951,14.0524683 L8.24558049,6.13598049 C10.9008,3.9491122 14.2997268,2.63414634 18,2.63414634 Z M6.16583415,8.2097561 L10.1230244,19.919239 C10.9072976,23.137639 13.6164293,25.6081171 16.9572293,26.039239 L10.6006829,31.4632976 C5.85570732,28.8449561 2.63414634,23.7917854 2.63414634,18 C2.63414634,14.2828683 3.96105366,10.8700683 6.16583415,8.2097561 Z" id="Shape" fill="#000000" fill-rule="nonzero"></path>
                        </g>
                        <text id="Chrome" fill="none" font-family="Hind-Medium, Hind" font-size="14" font-weight="400" letter-spacing="0.600000024">
                            <tspan x="27" y="83" fill="#000000">Chrome</tspan>
                        </text>
                        <path d="M10,12 C10.5253333,12 11.0426667,11.7866667 11.4133333,11.4133333 C11.7866667,11.0426667 12,10.5253333 12,10 C12,9.47466667 11.7866667,8.95733333 11.4133333,8.58666667 C11.0426667,8.21333333 10.5253333,8 10,8 C9.47466667,8 8.95733333,8.21333333 8.58666667,8.58666667 C8.21333333,8.95733333 8,9.47466667 8,10 C8,10.5253333 8.21333333,11.0426667 8.58666667,11.4133333 C8.95733333,11.7866667 9.47466667,12 10,12 Z" id="Shape" fill="#000000" fill-rule="nonzero"></path>
                        <path d="M16,12 C16.5253333,12 17.0426667,11.7866667 17.4133333,11.4133333 C17.7866667,11.0426667 18,10.5253333 18,10 C18,9.47466667 17.7866667,8.95733333 17.4133333,8.58666667 C17.0426667,8.21333333 16.5253333,8 16,8 C15.4746667,8 14.9573333,8.21333333 14.5866667,8.58666667 C14.2133333,8.95733333 14,9.47466667 14,10 C14,10.5253333 14.2133333,11.0426667 14.5866667,11.4133333 C14.9573333,11.7866667 15.4746667,12 16,12 Z" id="Shape" fill="#000000" fill-rule="nonzero"></path>
                        <path d="M22,12 C22.5253333,12 23.0426667,11.7866667 23.4133333,11.4133333 C23.7866667,11.0426667 24,10.5253333 24,10 C24,9.47466667 23.7866667,8.95733333 23.4133333,8.58666667 C23.0426667,8.21333333 22.5253333,8 22,8 C21.4746667,8 20.9573333,8.21333333 20.5866667,8.58666667 C20.2133333,8.95733333 20,9.47466667 20,10 C20,10.5253333 20.2133333,11.0426667 20.5866667,11.4133333 C20.9573333,11.7866667 21.4746667,12 22,12 Z" id="Shape" fill="#000000" fill-rule="nonzero"></path>
                        <path d="M29.9043887,12 L107.095611,12 C108.147342,12 109,11.1045333 109,10 C109,8.89546667 108.147342,8 107.095611,8 L29.9043887,8 C28.8526583,8 28,8.89546667 28,10 C28,11.1045333 28.8526583,12 29.9043887,12 Z" id="Shape" fill="#000000" fill-rule="nonzero"></path>
                    </g>
                </g>
            </g>
        </g>
    </g>
</svg>