<svg width="27" height="22" viewBox="0 0 27 22" version="1.1" xmlns="http://www.w3.org/2000/svg" xmlns:xlink="http://www.w3.org/1999/xlink">
<title>Arrow 1</title>
<desc>Created using Figma</desc>
<g id="Canvas" transform="translate(-5943 -238)">
<g id="Arrow 1">
<g id="Shape">
<use xlink:href="#path0_fill" transform="translate(5943 238.019)" fill="#6A797F"/>
</g>
</g>
</g>
<defs>
<path id="path0_fill" d="M 25.9782 9.9558L 16.4442 0.421541C 16.172 0.149385 15.8093 0 15.4225 0C 15.0353 0 14.6728 0.1496 14.4007 0.421541L 13.535 1.28738C 13.2631 1.5591 13.1133 1.92205 13.1133 2.30903C 13.1133 2.6958 13.2631 3.07099 13.535 3.34271L 19.0971 8.91698L 1.42624 8.91698C 0.629522 8.91698 0 9.5407 0 10.3376L 0 11.5617C 0 12.3586 0.629522 13.0452 1.42624 13.0452L 19.1602 13.0452L 13.5353 18.6506C 13.2633 18.9228 13.1135 19.2759 13.1135 19.6628C 13.1135 20.0494 13.2633 20.4076 13.5353 20.6796L 14.4009 21.5426C 14.673 21.8148 15.0356 21.9631 15.4228 21.9631C 15.8095 21.9631 16.1723 21.8128 16.4444 21.5407L 25.9785 12.0066C 26.2513 11.7336 26.4013 11.3692 26.4002 10.9818C 26.4011 10.5931 26.2513 10.2284 25.9782 9.9558Z"/>
</defs>
</svg>
