<svg xmlns="http://www.w3.org/2000/svg" width="226" height="226" viewBox="0 0 226 226">
  <g fill="none" fill-rule="evenodd">
    <circle cx="113" cy="113" r="113" fill="#495059" opacity=".8"/>
    <g transform="translate(50 58)">
      <path fill="#55A6B5" fill-rule="nonzero" d="M99.5993274,10.8468386 C99.5993274,8.52943946 97.7206951,6.65080717 95.403296,6.65080717 L11.2466368,6.65080717 C8.92923767,6.65080717 7.05060538,8.52943946 7.05060538,10.8468386 L7.05060538,53.9318161 L99.5993274,53.9318161 L99.5993274,10.8468386 Z"/>
      <path fill="#86DBD5" fill-rule="nonzero" d="M32.7407848,12.8199327 L29.323139,5.62997758 C28.4406726,3.77329596 26.5682063,2.59017937 24.5124888,2.59017937 L9.23876682,2.59017937 C7.18304933,2.59017937 5.31058296,3.77329596 4.42811659,5.62997758 L1.92647982,10.8929596 C0.658026906,13.5613229 0,16.4787892 0,19.4332511 L0,77.7337444 C0,80.0511435 1.87863229,81.9297758 4.19603139,81.9297758 L95.403296,81.9297758 C97.7206951,81.9297758 99.5993274,80.0511435 99.5993274,77.7337444 L99.5993274,19.1419731 C99.5993274,16.824574 97.7206951,14.9459417 95.403296,14.9459417 L36.1049103,14.9459417 C34.6672646,14.9456951 33.3581166,14.1184753 32.7407848,12.8199327 Z"/>
      <path fill="#000" fill-rule="nonzero" d="M21.3165695,2.59017937 L9.23876682,2.59017937 C7.18304933,2.59017937 5.31058296,3.77329596 4.42811659,5.62997758 L1.92647982,10.8929596 C0.658026906,13.5613229 0,16.4787892 0,19.4332511 L0,77.7337444 C0,80.0511435 1.87863229,81.9297758 4.19603139,81.9297758 L55.6442152,81.9297758 C31.7850673,66.8930717 20.5685202,25.5298655 21.3165695,2.59017937 Z" opacity=".1"/>
      <rect width="99.599" height="3.7" y="69.26" fill="#000" fill-rule="nonzero" opacity=".1"/>
      <path fill="#C58F85" fill-rule="nonzero" d="M126.278027,38.8450448 C126.278027,36.5276457 124.399395,34.6490135 122.081996,34.6490135 L37.9253363,34.6490135 C35.6079372,34.6490135 33.7293049,36.5276457 33.7293049,38.8450448 L33.7293049,81.9297758 L126.278027,81.9297758 L126.278027,38.8450448 Z"/>
      <path fill="#EEF0F1" fill-rule="nonzero" d="M119.409933,42.8723767 L66,42.8723767 L66,4.23993274 C66,1.89836323 67.8983632,0 70.2399327,0 L115.17,0 C117.51157,0 119.409933,1.89811659 119.409933,4.23993274 L119.409933,42.8723767 Z"/>
      <path fill="#495059" fill-rule="nonzero" d="M7.63643169,6.29828818 L12.2924978,10.9543543 C12.6643274,11.325816 12.6643274,11.9282831 12.2924978,12.2997113 C11.921036,12.671541 11.3189704,12.671541 10.9471407,12.2997113 L6.29104117,7.64364525 L1.6345737,12.2997448 C1.26351338,12.6715744 0.660644896,12.6715744 0.289216629,12.2997448 C-0.0822450887,11.9282831 -0.0822450887,11.325816 0.289216629,10.9543877 L4.9456841,6.29828818 L0.278914043,1.63151812 C-0.0929156234,1.25968845 -0.0929156234,0.657589317 0.278914043,0.28616105 C0.464628177,0.100045517 0.708210728,0.00718844985 0.951793278,0.00718844985 C1.19497443,0.00718844985 1.43855698,0.100045517 1.62430456,0.28616105 L6.29104117,4.95289766 L10.9471407,0.296798135 C11.1332562,0.111084001 11.3764374,0.0178255346 11.6200199,0.0178255346 C11.8632011,0.0178255346 12.1067836,0.111084001 12.2925312,0.296798135 C12.6643609,0.668259852 12.6643609,1.27032554 12.2925312,1.64215521 L7.63643169,6.29828818 Z" opacity=".5" transform="matrix(1 0 0 -1 84.857 29.857)"/>
      <path fill="#000" fill-rule="nonzero" d="M83.4626233,0.0715246637 L69.8786099,0.0715246637 C67.5370404,0.0715246637 65.6386771,1.96964126 65.6386771,4.3114574 L65.6386771,42.944148 L96.5341256,42.944148 C87.1177803,34.8712332 83.845157,9.83464126 83.4626233,0.0715246637 Z" opacity=".1"/>
      <path fill="#FDE27C" fill-rule="nonzero" d="M59.4194843,40.818139 L56.0018386,33.6281839 C55.1193722,31.7715022 53.2469058,30.5883857 51.1911883,30.5883857 L35.9174664,30.5883857 C33.8617489,30.5883857 31.9895291,31.7715022 31.1068161,33.6281839 L28.6051794,38.8911659 C27.3367265,41.5595291 26.6786996,44.4769955 26.6786996,47.4314574 L26.6786996,105.731951 C26.6786996,108.04935 28.5573318,109.927982 30.8747309,109.927982 L122.081996,109.927982 C124.399395,109.927982 126.278027,108.04935 126.278027,105.731951 L126.278027,47.1401794 C126.278027,44.8227803 124.399395,42.944148 122.081996,42.944148 L62.7836099,42.944148 C61.3459641,42.9439013 60.0368161,42.1166816 59.4194843,40.818139 Z"/>
      <g fill="#495059" fill-rule="nonzero" transform="translate(55.987 62.152)">
        <path d="M8.69542601 7.22867713C7.6738565 7.22867713 6.84565022 6.40047085 6.84565022 5.37890135 6.84565022 4.5240583 6.15013453 3.8285426 5.29529148 3.8285426 4.44044843 3.8285426 3.74517937 4.5240583 3.74517937 5.37890135 3.74517937 6.40047085 2.91697309 7.22867713 1.89540359 7.22867713.873834081 7.22867713.0456278027 6.40047085.0456278027 5.37890135.0456278027 2.48412556 2.4005157.128991031 5.29529148.128991031 8.19006726.128991031 10.5452018 2.48412556 10.5452018 5.37890135 10.5452018 6.40047085 9.71699552 7.22867713 8.69542601 7.22867713zM39.0882287 7.22867713C38.0666592 7.22867713 37.2384529 6.40047085 37.2384529 5.37890135 37.2384529 4.5240583 36.5429372 3.8285426 35.6880942 3.8285426 34.8332511 3.8285426 34.1377354 4.5240583 34.1377354 5.37890135 34.1377354 6.40047085 33.3095291 7.22867713 32.2879596 7.22867713 31.2663901 7.22867713 30.4381839 6.40047085 30.4381839 5.37890135 30.4381839 2.48412556 32.7933184.128991031 35.6880942.128991031 38.58287.128991031 40.9380045 2.48412556 40.9380045 5.37890135 40.9380045 6.40047085 40.1097982 7.22867713 39.0882287 7.22867713z"/>
        <path d="M20.4918161,20.7027258 C18.5749552,20.7027258 16.7520628,19.8725464 15.4907623,18.4252819 C14.8196637,17.6550352 14.8998206,16.4867168 15.6700673,15.8153716 C16.4400673,15.1442729 17.6086323,15.2244299 18.2799776,15.9946765 C18.8386099,16.6359321 19.6448655,17.0034209 20.4920628,17.0034209 C21.3392601,17.0034209 22.1455157,16.6359321 22.704148,15.9946765 C23.3754933,15.2244299 24.5440583,15.1445195 25.3140583,15.8153716 C26.0843049,16.4867168 26.1644619,17.6550352 25.4933632,18.4252819 C24.2315695,19.8725464 22.4086771,20.7027258 20.4918161,20.7027258 Z" transform="matrix(1 0 0 -1 0 36.063)"/>
      </g>
      <path fill="#000" fill-rule="nonzero" d="M47.9955157,30.5883857 L35.917713,30.5883857 C33.8619955,30.5883857 31.9897758,31.7715022 31.1070628,33.6281839 L28.605426,38.8911659 C27.3369731,41.5595291 26.6789462,44.4769955 26.6789462,47.431704 L26.6789462,105.732197 C26.6789462,108.049596 28.5575785,109.928229 30.8749776,109.928229 L82.3231614,109.928229 C58.4637668,94.8910314 47.2472197,53.5283184 47.9955157,30.5883857 Z" opacity=".1"/>
      <rect width="99.599" height="3.7" x="26.679" y="97.261" fill="#000" fill-rule="nonzero" opacity=".1"/>
    </g>
  </g>
</svg>
