<?xml version="1.0" encoding="UTF-8"?>
<svg width="181px" height="201px" viewBox="0 0 181 201" version="1.1" xmlns="http://www.w3.org/2000/svg" xmlns:xlink="http://www.w3.org/1999/xlink">
    <!-- Generator: Sketch 48.2 (47327) - http://www.bohemiancoding.com/sketch -->
    <title>Illustration 2</title>
    <desc>Created with Sketch.</desc>
    <defs>
        <linearGradient x1="49.8812055%" y1="100.371665%" x2="49.8812055%" y2="0.0734546923%" id="linearGradient-1">
            <stop stop-color="#FFFFFF" stop-opacity="0.12" offset="0%"></stop>
            <stop stop-color="#FFFFFF" stop-opacity="0.09" offset="55%"></stop>
            <stop stop-color="#FFFFFF" stop-opacity="0.02" offset="100%"></stop>
        </linearGradient>
    </defs>
    <g id="Mobile-Empty-Screen-2" stroke="none" stroke-width="1" fill="none" fill-rule="evenodd" transform="translate(-90.000000, -144.000000)">
        <g id="Illustration-2" transform="translate(90.000000, 144.000000)">
            <rect id="Rectangle-path" fill="#B0B9C5" fill-rule="nonzero" transform="translate(117.469399, 97.156877) rotate(-0.080000) translate(-117.469399, -97.156877) " x="54.216667" y="0.344035601" width="126.505464" height="193.625683" rx="17.17"></rect>
            <rect id="Rectangle-path" fill="url(#linearGradient-1)" fill-rule="nonzero" transform="translate(107.695025, 97.332791) rotate(-0.080000) translate(-107.695025, -97.332791) " x="53.0707078" y="16.1333373" width="109.248634" height="162.398907"></rect>
            <rect id="Rectangle-path" fill="#ECEDEF" fill-rule="nonzero" transform="translate(117.326780, 94.811449) rotate(-0.080000) translate(-117.326780, -94.811449) " x="56.7543756" y="1.68849856" width="121.144809" height="186.245902" rx="17.17"></rect>
            <rect id="Rectangle-path" fill="#FFFFFF" fill-rule="nonzero" transform="translate(117.310109, 94.105191) rotate(-0.080000) translate(-117.310109, -94.105191) " x="65" y="16" width="104.620219" height="156.210383" rx="1"></rect>
            <circle id="Oval" fill="#B0B9C5" fill-rule="nonzero" cx="117.666667" cy="180.144809" r="4.31147541"></circle>
            <circle id="Oval" fill="#B0B9C5" fill-rule="nonzero" transform="translate(99.315165, 9.186402) rotate(-0.080000) translate(-99.315165, -9.186402) " cx="99.315165" cy="9.18640189" r="1.43715847"></circle>
            <rect id="Rectangle-path" fill="#B0B9C5" fill-rule="nonzero" transform="translate(115.842239, 9.018517) rotate(-0.080000) translate(-115.842239, -9.018517) " x="106.500709" y="8.29993759" width="18.6830601" height="1.43715847" rx="0.718579235"></rect>
            <g id="Sad" transform="translate(97.000000, 64.000000)" fill="#B0B9C5">
                <path d="M19.8593182,23.3169353 C28.3743042,23.3169353 35.9739545,28.1655122 39.2190052,35.6705892 C39.7746241,36.9549301 39.1843846,38.4453059 37.9000437,39.0009248 C36.6157028,39.5582325 35.1261713,38.9646154 34.5705524,37.6811189 C32.1259983,32.0337343 26.354486,28.3833689 19.8601626,28.3833689 C13.2163794,28.3833689 7.40771329,32.0295122 5.06364336,37.675208 C4.65917308,38.6496521 3.71597203,39.2373584 2.72379545,39.2373584 C2.39954371,39.2373584 2.07106993,39.1748724 1.75272902,39.0431451 C0.460788462,38.5069476 -0.151405594,37.0241713 0.385636364,35.7330752 C3.5158479,28.1908444 11.1602517,23.3169353 19.8593182,23.3169353 Z" id="Path"></path>
                <path d="M2.25346154,5.83773951 C2.25346154,2.94733916 4.59837587,0.60158042 7.48962063,0.60158042 C10.380021,0.60158042 12.7240909,2.94649476 12.7240909,5.83773951 C12.7240909,8.73067308 10.380021,11.0755874 7.48962063,11.0755874 C4.59753147,11.0755874 2.25346154,8.73067308 2.25346154,5.83773951 Z" id="Path"></path>
                <path d="M25.9947692,5.83773951 C25.9947692,2.94733916 28.3422168,0.60158042 31.2317727,0.60158042 C34.1238619,0.60158042 36.4679318,2.94649476 36.4679318,5.83773951 C36.4679318,8.73067308 34.1238619,11.0755874 31.2317727,11.0755874 C28.3430612,11.0755874 25.9947692,8.73067308 25.9947692,5.83773951 Z" id="Path"></path>
            </g>
            <rect id="Rectangle-path" fill="#B0B9C5" fill-rule="nonzero" transform="translate(42.807592, 124.098231) rotate(-0.080000) translate(-42.807592, -124.098231) " x="0.10813824" y="47.4616187" width="85.3989071" height="153.273224" rx="10"></rect>
            <rect id="Rectangle-path" fill="#ECEDEF" fill-rule="nonzero" transform="translate(42.803242, 121.961626) rotate(-0.080000) translate(-42.803242, -121.961626) " x="2.06963585" y="49.0435937" width="81.4672131" height="145.836066" rx="10"></rect>
            <rect id="Rectangle-path" fill="#FFFFFF" fill-rule="nonzero" transform="translate(42.800044, 118.692510) rotate(-0.080000) translate(-42.800044, -118.692510) " x="11.2645248" y="59.3523458" width="63.0710383" height="118.680328" rx="1"></rect>
            <circle id="Oval" fill="#B0B9C5" fill-rule="nonzero" transform="translate(42.894835, 186.581658) rotate(-0.080000) translate(-42.894835, -186.581658) " cx="42.8948353" cy="186.581658" r="5.03005464"></circle>
            <circle id="Oval" fill="#B0B9C5" fill-rule="nonzero" transform="translate(33.152116, 53.833085) rotate(-0.080000) translate(-33.152116, -53.833085) " cx="33.1521157" cy="53.833085" r="1.00546448"></circle>
            <rect id="Rectangle-path" fill="#B0B9C5" fill-rule="nonzero" transform="translate(45.477217, 53.815880) rotate(-0.080000) translate(-45.477217, -53.815880) " x="37.6821354" y="53.0617813" width="15.5901639" height="1.50819672" rx="0.754098361"></rect>
            <g id="Expression" transform="translate(26.000000, 100.000000)" fill="#B0B9C5" fill-rule="nonzero">
                <path d="M33.3924138,36.6531034 C33.8448276,37.702069 33.3627586,38.9193103 32.3144828,39.3731034 C31.2655172,39.8275862 30.0482759,39.3441379 29.5944828,38.2958621 C27.5986207,33.6827586 22.8841379,30.7006897 17.5806897,30.7006897 C12.1537931,30.7006897 7.40965517,33.68 5.49586207,38.2910345 C5.16482759,39.0855172 4.39517241,39.5668966 3.58482759,39.5675862 C3.31931034,39.5675862 3.05172414,39.5165517 2.79172414,39.4089655 C1.73586207,38.9696552 1.23586207,37.7586207 1.67517241,36.7041379 C4.23310345,30.5441379 10.477931,26.5641379 17.5813793,26.5641379 C24.5351724,26.5641379 30.742069,30.5241379 33.3924138,36.6531034 Z M0.713793103,11.5951724 C0.247586207,10.7841379 0.527586207,9.74965517 1.33862069,9.28413793 L7.57655172,5.70068966 C8.38758621,5.23586207 9.42206897,5.51586207 9.88827586,6.3262069 C10.3544828,7.13724138 10.0744828,8.17172414 9.26344828,8.63724138 L3.02551724,12.2193103 C2.21310345,12.6855172 1.17862069,12.4062069 0.713793103,11.5951724 Z M10.3931034,11.6682759 C11.5572414,12.8331034 11.5572414,14.7227586 10.3931034,15.8855172 C9.22896552,17.0496552 7.34068966,17.0496552 6.17448276,15.8841379 C5.01034483,14.72 5.01034483,12.8317241 6.17448276,11.6682759 C7.33931034,10.5034483 9.22758621,10.5034483 10.3931034,11.6682759 Z M20.5317241,1.54206897 C20.6151724,0.611034483 21.4372414,-0.0765517241 22.3675862,0.00689655172 L29.5344828,0.651034483 C30.4655172,0.734482759 31.1537931,1.55655172 31.0689655,2.48827586 C30.9855172,3.42 30.1641379,4.10689655 29.2317241,4.02275862 L22.0662069,3.37931034 C21.1351724,3.29586207 20.4462069,2.47241379 20.5317241,1.54206897 Z M28.1813793,11.6193103 C29.3455172,12.7834483 29.3455172,14.6717241 28.1813793,15.8351724 C27.0151724,17.0006897 25.1255172,17.0006897 23.9627586,15.8365517 C22.7986207,14.6731034 22.7986207,12.7841379 23.9627586,11.6193103 C25.1275862,10.4537931 27.0158621,10.4537931 28.1813793,11.6193103 Z" id="Shape"></path>
            </g>
        </g>
    </g>
</svg>