<?xml version="1.0" encoding="UTF-8"?>
<svg width="24px" height="23px" viewBox="0 0 24 23" version="1.1" xmlns="http://www.w3.org/2000/svg" xmlns:xlink="http://www.w3.org/1999/xlink">
    <!-- Generator: Sketch 46.2 (44496) - http://www.bohemiancoding.com/sketch -->
    <title>Shape</title>
    <desc>Created with Sketch.</desc>
    <defs></defs>
    <g id="Page-1" stroke="none" stroke-width="1" fill="none" fill-rule="evenodd" opacity="0.800000012">
        <g id="Project" transform="translate(-133.000000, -240.000000)" fill-rule="nonzero" fill="#474545">
            <g id="Search" transform="translate(133.000000, 240.000000)">
                <g id="icon">
                    <path d="M23.3793523,20.9612361 L18.0071362,15.8009997 C19.3275997,14.1661254 20.1157929,12.116266 20.1157929,9.89125254 C20.1157929,4.56359857 15.6038741,0.229618915 10.0571228,0.229618915 C4.51191884,0.229309456 0,4.56328911 0,9.89125254 C0,15.219216 4.51191884,19.5535051 10.0574323,19.5535051 C12.4495538,19.5535051 14.6482633,18.7461254 16.3765943,17.401524 L21.7305523,22.5441212 C21.9570767,22.7629091 22.256324,22.8724577 22.5543334,22.8724577 C22.8535807,22.8724577 23.1515902,22.7629091 23.3793523,22.5441212 C23.8345672,22.1062361 23.8345672,21.3988118 23.3793523,20.9612361 Z M2.33208645,9.89125254 C2.33208645,5.79927017 5.79803234,2.47072428 10.0574323,2.47072428 C14.31807,2.47072428 17.7840159,5.79927017 17.7840159,9.89125254 C17.7840159,13.9832349 14.31807,17.313947 10.0574323,17.313947 C5.79803234,17.313947 2.33208645,13.9829254 2.33208645,9.89125254 Z" id="Shape"></path>
                </g>
            </g>
        </g>
    </g>
</svg>